<?xml version="1.0" encoding="UTF-8"?>
<svg version="1.1" xmlns="http://www.w3.org/2000/svg" width="1200" height="259">
<path d="M0 0 C19.05853134 16.54562869 30.64118158 39.48017154 33.125 64.625 C34.31755652 85.79810869 34.31755652 85.79810869 28.47265625 92.52734375 C23.7963584 96.72909129 20.27113137 97.74818799 13.97163391 97.77217102 C12.68329147 97.77932632 11.39494904 97.78648163 10.06756592 97.79385376 C8.63659692 97.79669402 7.20562766 97.79940575 5.7746582 97.80200195 C4.26997216 97.80826744 2.76528766 97.81491431 1.26060486 97.82191467 C-3.6843254 97.84294989 -8.62925594 97.85331752 -13.57421875 97.86328125 C-15.2775302 97.86732921 -16.98084149 97.87144614 -18.6841526 97.87563133 C-26.68785608 97.89468294 -34.69155035 97.90891323 -42.69527215 97.9172433 C-51.92820306 97.92701174 -61.16089399 97.953321 -70.39374036 97.99374419 C-77.5335716 98.02392872 -84.67333415 98.03871445 -91.81322795 98.04202431 C-96.07582136 98.04437242 -100.33815837 98.05330135 -104.60068321 98.07848549 C-108.61364563 98.10181183 -112.62618368 98.10598131 -116.6391964 98.09572411 C-118.10811782 98.09522971 -119.57706044 98.10152163 -121.04591751 98.11528015 C-130.35583619 98.1975705 -137.14265231 97.98374129 -144.25 91.4375 C-151.39393238 79.07300164 -148.23403213 61.84685065 -144.875 48.625 C-137.77407225 23.99347688 -122.51037374 3.86629799 -100.0715332 -8.69726562 C-68.55837156 -25.6516142 -28.10079428 -22.09034662 0 0 Z " fill="#63A93E" transform="translate(235.875,161.375)"/>
<path d="M0 0 C1.32837891 0.00845947 1.32837891 0.00845947 2.68359375 0.01708984 C17.97961935 0.2994178 31.01983985 5.36599241 42.1328125 16.03515625 C54.69218357 29.15722315 59.8709832 44.88629851 59.80249023 62.80639648 C59.33118232 78.0857089 51.98986977 91.76123574 40.93359375 102.18359375 C27.99826996 112.68992976 11.89143466 118.40151341 -4.76953125 117.79296875 C-15.94961141 116.421932 -25.65548399 112.02449897 -34.6875 105.3125 C-35.74517578 104.54679687 -35.74517578 104.54679687 -36.82421875 103.765625 C-47.23025611 95.50621617 -54.90987169 82.22220907 -57.6875 69.3125 C-58.58639931 57.7173189 -58.8308959 45.95290027 -53.6875 35.3125 C-53.275 34.39726563 -52.8625 33.48203125 -52.4375 32.5390625 C-45.39169101 18.2472795 -33.90665043 8.75117629 -19.171875 3.13671875 C-18.35203125 2.86472656 -17.5321875 2.59273438 -16.6875 2.3125 C-15.63433594 1.95414062 -14.58117187 1.59578125 -13.49609375 1.2265625 C-8.91354784 0.12675148 -4.69414452 -0.03121107 0 0 Z " fill="#63A93E" transform="translate(177.6875,-0.3125)"/>
<path d="M0 0 C14.95489706 12.34333349 23.60309779 30.99078138 26 50 C26.28109895 54.35888976 26.32526133 58.6955724 26.3125 63.0625 C26.32861328 64.16916016 26.34472656 65.27582031 26.36132812 66.41601562 C26.36615156 74.58208789 25.77349818 82.30200243 20.75 89 C14.06925506 93.85872359 6.65814609 93.26824343 -1.27734375 93.1953125 C-2.4438295 93.1924826 -3.61031525 93.18965271 -4.81214905 93.18673706 C-8.52070576 93.17558388 -12.22901685 93.15048786 -15.9375 93.125 C-18.45898088 93.11496393 -20.98046555 93.10583918 -23.50195312 93.09765625 C-29.6680519 93.07566044 -35.83400839 93.04223118 -42 93 C-41.78724426 92.19239227 -41.57448853 91.38478455 -41.35528564 90.55270386 C-41.07980896 89.48456451 -40.80433228 88.41642517 -40.52050781 87.31591797 C-40.24587708 86.26081024 -39.97124634 85.20570251 -39.68829346 84.11862183 C-38.72182746 79.73961471 -38.62934881 75.5886437 -38.75 71.125 C-38.76385742 70.26495361 -38.77771484 69.40490723 -38.79199219 68.51879883 C-38.84159 66.01153591 -38.91726483 63.50635843 -39 61 C-39.0309375 59.72253906 -39.061875 58.44507813 -39.09375 57.12890625 C-40.26552021 31.32066745 -53.00592963 9.21741456 -68 -11 C-49.14370093 -23.57086605 -16.12336551 -11.98916923 0 0 Z " fill="#63A93E" transform="translate(332,166)"/>
<path d="M0 0 C-2.32175837 4.18555523 -4.75229294 8.16681574 -7.50097656 12.08251953 C-20.15122792 30.23696548 -28.85134789 51.65263246 -29 74 C-29.04777438 75.46620237 -29.09736078 76.93234645 -29.1484375 78.3984375 C-29.18504741 79.95306255 -29.21892798 81.50775441 -29.25 83.0625 C-29.28262939 84.10603638 -29.28262939 84.10603638 -29.31591797 85.1706543 C-29.35540384 92.01039719 -27.68833667 98.40390038 -26 105 C-33.3830989 105.10183187 -40.76601512 105.17164658 -48.1496582 105.21972656 C-50.65884164 105.23978062 -53.16797869 105.26703085 -55.67700195 105.30175781 C-59.29389933 105.35054754 -62.9101761 105.37303182 -66.52734375 105.390625 C-68.19663185 105.42159271 -68.19663185 105.42159271 -69.89964294 105.45318604 C-76.69851828 105.4551231 -82.15950212 104.65857944 -88 101 C-94.34059659 94.50088849 -93.28739664 86.80485433 -93.35009766 78.32666016 C-93.36644614 76.71713591 -93.39344601 75.10767754 -93.43212891 73.49853516 C-93.92153667 52.9817105 -88.60363883 34.27793941 -74.18237305 19.10742188 C-63.18268572 7.96376447 -50.43196452 0.9051138 -35 -2 C-33.2984375 -2.3403125 -33.2984375 -2.3403125 -31.5625 -2.6875 C-20.50235246 -3.65768838 -10.74196715 -2.49605876 0 0 Z " fill="#63A93E" transform="translate(93,154)"/>
<path d="M0 0 C8.27804198 7.58711879 12.72530116 17.08249541 13.640625 28.22265625 C14.11674638 39.75307405 10.44113633 50.71029385 2.6640625 59.2734375 C-6.5577077 67.91768269 -18.61263879 72.03838513 -31.14453125 72.7109375 C-40.15733554 72.36237601 -48.44647587 67.93918734 -55.01953125 62.0234375 C-65.1087046 50.92534681 -69.16693744 40.63469619 -68.8515625 25.67578125 C-68.2774277 14.67271222 -62.46422436 6.52168024 -54.51953125 -0.7265625 C-37.96672092 -13.67859915 -16.50667275 -12.8147041 0 0 Z " fill="#63A93E" transform="translate(81.51953125,49.7265625)"/>
<path d="M0 0 C13.0820595 -0.51150233 23.40314084 3.35000209 33.109375 12.18359375 C40.19076881 19.88362234 44.14337402 29.77188086 44.546875 40.24609375 C43.95129957 52.09996596 40.04525509 62.90550038 31.234375 71.05859375 C23.02789716 77.6922931 11.77870809 82.41662131 1.109375 82.18359375 C-10.58494758 80.76883658 -21.40618748 75.82428705 -29.43359375 67.0546875 C-36.06091573 58.54399789 -40.15770006 48.04172307 -38.890625 37.18359375 C-36.92027003 25.08233032 -31.67142707 14.80902708 -21.890625 7.18359375 C-14.61443818 2.73649688 -8.4742098 0.53822684 0 0 Z " fill="#64A83E" transform="translate(300.890625,39.81640625)"/>
<path d="M0 0 C3.96 0 7.92 0 12 0 C12 51.81 12 103.62 12 157 C8.04 157 4.08 157 0 157 C-0.33 149.74 -0.66 142.48 -1 135 C-2.010625 136.36125 -3.02125 137.7225 -4.0625 139.125 C-12.12903026 149.36821303 -23.13883256 156.19246865 -36 159 C-52.31919431 160.41684049 -67.0595425 159.19037568 -81 150 C-81.73734375 149.52046875 -82.4746875 149.0409375 -83.234375 148.546875 C-93.54172282 141.22510379 -100.03063397 130.85806406 -104 119 C-104.24492188 118.30003906 -104.48984375 117.60007812 -104.7421875 116.87890625 C-108.82290444 102.54049674 -106.43675915 85.37512031 -99.875 72.3125 C-91.28476056 57.38313209 -78.90996433 48.18607077 -62.5078125 43.25 C-46.97795721 39.5839358 -30.29908156 42.03191222 -16.70703125 50.4140625 C-10.27609932 55.06622603 -5.08530166 60.1911639 -1 67 C-0.67 44.89 -0.34 22.78 0 0 Z M-85 72 C-92.84799272 82.41409389 -94.77597483 94.21078524 -94 107 C-92.15542184 119.66193481 -85.7009741 131.1804475 -75.42578125 138.9453125 C-64.34971106 146.3293593 -52.26303019 149.79867539 -38.96875 147.46875 C-24.93358115 144.20805421 -15.11021535 137.03197633 -6.46875 125.39453125 C0.26463805 114.41695978 1.35852138 101.90299797 -1.125 89.5 C-4.11263865 77.66061334 -11.61904524 67.05905559 -22.0625 60.625 C-43.93855701 48.51264328 -68.68432888 52.67990862 -85 72 Z " fill="#FFFFFF" transform="translate(801,61)"/>
<path d="M0 0 C3.96 0 7.92 0 12 0 C12 51.81 12 103.62 12 157 C8.04 157 4.08 157 0 157 C-0.33 149.74 -0.66 142.48 -1 135 C-2.010625 136.36125 -3.02125 137.7225 -4.0625 139.125 C-12.24599761 149.516743 -23.73513536 156.84344677 -37 159 C-52.9892308 160.39460141 -67.34653241 159.00117493 -81 150 C-81.73734375 149.52046875 -82.4746875 149.0409375 -83.234375 148.546875 C-93.54172282 141.22510379 -100.03063397 130.85806406 -104 119 C-104.24492188 118.30003906 -104.48984375 117.60007812 -104.7421875 116.87890625 C-108.82290444 102.54049674 -106.43675915 85.37512031 -99.875 72.3125 C-91.28476056 57.38313209 -78.90996433 48.18607077 -62.5078125 43.25 C-46.97795721 39.5839358 -30.29908156 42.03191222 -16.70703125 50.4140625 C-10.27609932 55.06622603 -5.08530166 60.1911639 -1 67 C-0.67 44.89 -0.34 22.78 0 0 Z M-85 72 C-93.38245718 83.12331511 -95.44779314 96.48025539 -93.57421875 110.09375 C-90.89355753 122.59253852 -84.35925306 132.53720001 -74 140 C-61.98161192 147.3824973 -49.6682548 149.92106235 -35.875 146.75 C-22.70009041 143.08656851 -12.2059145 134.7479404 -5 123 C1.05066757 109.77338827 1.50780987 96.81260986 -3 83 C-9.31178171 69.23599003 -19.97393843 60.22539549 -34 55 C-53.4196253 50.17060106 -72.22509155 56.87267874 -85 72 Z " fill="#FFFFFF" transform="translate(945,61)"/>
<path d="M0 0 C11.99370758 9.9423955 18.39094024 23.00548244 21.41015625 38.1015625 C21.41015625 43.3815625 21.41015625 48.6615625 21.41015625 54.1015625 C-11.91984375 54.1015625 -45.24984375 54.1015625 -79.58984375 54.1015625 C-74.76741166 69.5333452 -71.01116548 80.52261402 -56.91796875 88.640625 C-43.27224359 95.2322041 -28.96341294 95.91559461 -14.58984375 91.1015625 C-6.21672 87.38353282 -0.54994964 82.80369876 4.41015625 75.1015625 C9.20925315 75.88897909 12.28930568 77.59673176 16.41015625 80.1015625 C10.02355208 92.87477084 -0.8660517 99.72558212 -14.046875 104.33984375 C-29.26833081 108.899266 -48.02366487 107.58466459 -62.30078125 100.81640625 C-76.08425057 93.20369012 -86.05538257 81.20883768 -90.58984375 66.1015625 C-94.75770195 48.59655805 -92.95630883 31.46398754 -84.24609375 15.6640625 C-75.82574755 2.19150858 -63.85977261 -5.96496837 -48.58984375 -9.8984375 C-30.92473758 -12.94693011 -14.57646619 -10.68501142 0 0 Z M-68.58984375 15.1015625 C-74.56580556 22.88421044 -79.58984375 32.09539131 -79.58984375 42.1015625 C-50.54984375 42.1015625 -21.50984375 42.1015625 8.41015625 42.1015625 C7.05248102 28.5248102 3.64589509 18.95823396 -7.0859375 10.0234375 C-25.77804702 -3.51909542 -52.46128286 -2.47968633 -68.58984375 15.1015625 Z " fill="#FFFFFF" transform="translate(1120.58984375,113.8984375)"/>
<path d="M0 0 C4.29 0 8.58 0 13 0 C13.33 20.13 13.66 40.26 14 61 C16.31 58.36 18.62 55.72 21 53 C29.19170992 44.80829008 40.29264909 41.90630829 51.625 41.75 C64.1058165 41.86836391 74.88205758 45.08381711 84.1875 53.5625 C96.10282063 66.19131288 96.30049785 81.5162844 96.1953125 97.8203125 C96.19157569 99.53237746 96.18873188 101.24444458 96.18673706 102.95651245 C96.17915312 107.43137668 96.15955052 111.90610812 96.1373291 116.38092041 C96.11675691 120.95965784 96.10771118 125.53841703 96.09765625 130.1171875 C96.07629896 139.07818288 96.04222739 148.03908034 96 157 C92.04 157 88.08 157 84 157 C83.99191315 156.13715393 83.98382629 155.27430786 83.97549438 154.38531494 C83.89717114 146.20675514 83.80977051 138.02835158 83.71247292 129.84999466 C83.66277756 125.64661126 83.61644795 121.44324978 83.578125 117.23974609 C83.54093062 113.17419153 83.49448419 109.10883347 83.44193649 105.0434494 C83.4235721 103.50155882 83.40839987 101.95962642 83.39665604 100.4176712 C83.6217113 80.78263763 83.6217113 80.78263763 75.0546875 63.83984375 C67.10053472 56.20441138 59.8672601 54.49047627 49.02099609 54.57983398 C38.75195758 54.95717715 30.21686895 58.65651931 23 66 C14.27728002 77.18493196 13.54478747 89.70331053 13.48828125 103.38671875 C13.47139992 104.94042853 13.45324515 106.49412494 13.43388367 108.04780579 C13.38675179 112.10004495 13.35670604 116.15222991 13.33044434 120.20465088 C13.30045104 124.35464176 13.25398616 128.50444641 13.20898438 132.65429688 C13.12337101 140.76945426 13.05736725 148.88459375 13 157 C8.71 157 4.42 157 0 157 C0 105.19 0 53.38 0 0 Z " fill="#FFFFFF" transform="translate(450,61)"/>
<path d="M0 0 C3.96 0 7.92 0 12 0 C12.00364563 0.94023514 12.00729126 1.88047028 12.01104736 2.84919739 C12.04813383 11.74924103 12.10605422 20.64894303 12.18390274 29.54872608 C12.22326021 34.12323669 12.25550582 38.69755817 12.27099609 43.2722168 C12.28624049 47.69450754 12.32082221 52.11627794 12.36830902 56.5383358 C12.3830431 58.21780539 12.39103639 59.89734931 12.39188385 61.57688332 C12.40331624 72.88258311 13.0353973 84.10125352 20.25390625 93.43359375 C27.51181076 99.94459981 36.91729331 102.38325172 46.44921875 102.20703125 C56.89033078 101.3595903 65.80969605 97.92857995 72.8125 89.9296875 C79.62359785 80.42820601 82.04783039 69.78043034 82.20532227 58.23852539 C82.22526749 56.93770523 82.24521271 55.63688507 82.26576233 54.29664612 C82.28274028 52.896984 82.29961931 51.49732067 82.31640625 50.09765625 C82.3370062 48.65033923 82.35800341 47.20302781 82.37937927 45.75572205 C82.43428626 41.96646698 82.4838324 38.17716048 82.53222656 34.38781738 C82.5826723 30.51305625 82.63823731 26.63836881 82.69335938 22.76367188 C82.80055657 15.17584221 82.90161132 7.58794993 83 0 C86.96 0 90.92 0 95 0 C95 36.96 95 73.92 95 112 C91.04 112 87.08 112 83 112 C82.67 106.39 82.34 100.78 82 95 C80.700625 96.52625 79.40125 98.0525 78.0625 99.625 C70.59362013 107.87577823 62.6385099 113.05557884 51.38500977 114.28588867 C48.74993409 114.39979115 46.13712315 114.41005777 43.5 114.375 C42.62730469 114.38660156 41.75460937 114.39820313 40.85546875 114.41015625 C29.80881827 114.36106003 20.6567844 110.98335769 12.375 103.6875 C11.59125 102.800625 10.8075 101.91375 10 101 C9.50628906 100.44828125 9.01257813 99.8965625 8.50390625 99.328125 C-0.66264516 88.26425746 -0.55833748 75.72047327 -0.390625 62.109375 C-0.38314871 60.31049229 -0.37746235 58.51160134 -0.37347412 56.71270752 C-0.35832691 52.01740347 -0.31914163 47.32260794 -0.2746582 42.62750244 C-0.23346765 37.82074865 -0.21541271 33.01391131 -0.1953125 28.20703125 C-0.15263481 18.80446618 -0.08451871 9.40227566 0 0 Z " fill="#FFFFFF" transform="translate(574,106)"/>
<path d="M0 0 C3.96 0 7.92 0 12 0 C12 54.12 12 108.24 12 164 C8.04 164 4.08 164 0 164 C0 109.88 0 55.76 0 0 Z " fill="#FFFFFF" transform="translate(990,54)"/>
<path d="M0 0 C4.71865754 2.88682097 7.95655725 7.20317541 10.359375 12.11328125 C11.64008825 19.08605337 11.73444612 25.96457267 7.921875 32.17578125 C3.51125309 37.025556 -1.03930694 40.65659089 -7.69140625 41.51171875 C-15.04059379 41.61807458 -20.36904747 40.66181848 -25.83203125 35.52734375 C-31.10084829 29.71260109 -32.50862661 24.6847368 -32.3203125 16.890625 C-31.82257083 11.31110147 -29.88700818 7.65630534 -25.828125 3.92578125 C-17.97663094 -2.21743795 -9.27906504 -3.91576545 0 0 Z " fill="#63A93E" transform="translate(1189.078125,179.82421875)"/>
</svg>
