<?xml version="1.0" encoding="UTF-8"?>
<svg version="1.1" xmlns="http://www.w3.org/2000/svg" width="4530" height="979">
<path d="M0 0 C1.00289062 0.79019531 2.00578125 1.58039063 3.0390625 2.39453125 C19.1103907 15.2469623 34.29330428 29.81382781 47 46 C47.90482185 47.09471031 48.81253673 48.18703384 49.72265625 49.27734375 C62.47458474 64.66958631 73.2659314 81.56398543 83 99 C83.40138184 99.71236816 83.80276367 100.42473633 84.21630859 101.15869141 C118.42376777 162.32569266 143.13187262 251.02759507 124.02197266 320.35180664 C119.33612114 336.46216222 111.94904772 350.57919371 97.2890625 359.68359375 C85.07373889 366.24973955 71.50742143 369.15795006 57.71240807 369.13422108 C56.31557051 369.13774942 56.31557051 369.13774942 54.89051402 369.14134905 C51.75865251 369.1480254 48.62683262 369.14758123 45.4949646 369.14717102 C43.23127448 369.15047051 40.96758495 369.15419626 38.70389616 369.1583125 C32.47379649 369.16833126 26.24370646 369.17204911 20.01359987 369.17470181 C13.98702266 369.17820457 7.96045272 369.18635205 1.93388009 369.19424575 C-14.21468596 369.21508139 -30.36325383 369.2255596 -46.51183019 369.23437535 C-54.15570104 369.23858418 -61.79957111 369.24380594 -69.4434413 369.24905988 C-95.62261966 369.26695167 -121.80179826 369.28194541 -147.98098183 369.28938007 C-149.62432711 369.28985483 -151.2676724 369.29033072 -152.91101768 369.29080774 C-153.72595167 369.29104411 -154.54088566 369.29128049 -155.38051461 369.29152403 C-159.50921027 369.29272519 -163.63790592 369.29394065 -167.76660156 369.29516602 C-168.9956203 369.29552624 -168.9956203 369.29552624 -170.2494677 369.29589374 C-196.79409224 369.30378063 -223.33867201 369.32719902 -249.88327702 369.35972196 C-277.96388423 369.39406382 -306.04446527 369.41373537 -334.12509382 369.41702431 C-337.21132939 369.41744183 -340.29756495 369.41792139 -343.38380051 369.41844749 C-344.52363319 369.41863228 -344.52363319 369.41863228 -345.68649279 369.4188208 C-357.88722642 369.4211477 -370.08790786 369.43677935 -382.28862293 369.45728934 C-394.56796703 369.47760292 -406.84724881 369.48299863 -419.1266066 369.47351871 C-425.77204916 369.46877968 -432.41735884 369.47082245 -439.06278801 369.49028015 C-445.15775047 369.50797122 -451.25242215 369.50686576 -457.34738795 369.49138286 C-459.54136237 369.48901579 -461.73535724 369.49328298 -463.9293005 369.50521151 C-487.33271612 369.62447789 -512.12284038 366.96884717 -530.4375 350.85546875 C-550.80047963 330.11412294 -551.36491841 296.24943892 -551.15234375 269.08203125 C-549.66639181 178.46352423 -509.69301594 90.06296149 -438.41162109 17.36132812 C-435.37836819 14.43614338 -432.25570185 11.67452803 -429 9 C-428.49839355 8.58459961 -427.99678711 8.16919922 -427.47998047 7.74121094 C-412.20652728 -4.86475359 -396.12899571 -16.0611668 -379 -26 C-378.17435547 -26.47937012 -377.34871094 -26.95874023 -376.49804688 -27.45263672 C-354.05575172 -40.35397887 -331.43430805 -50.40556387 -306.22015381 -56.46073914 C-300.9874245 -57.72664143 -295.80741728 -59.14861752 -290.625 -60.60546875 C-201.48768307 -85.42007923 -99.65205621 -65.49386037 0 0 Z " fill="#63A93E" transform="translate(885,610)"/>
<path d="M0 0 C1.12196777 0.28182129 1.12196777 0.28182129 2.26660156 0.56933594 C40.10925668 10.22360129 77.03581202 32.84192056 102 63 C102.71027344 63.79921875 103.42054688 64.5984375 104.15234375 65.421875 C143.86710203 110.99407737 163.2938276 173.01762545 159.72265625 233.04296875 C156.26665 281.39547393 131.87267155 329.00778523 98.39648438 363.55664062 C97.09067534 364.90628102 95.80244773 366.27287002 94.515625 367.640625 C60.31333712 403.18417907 11.11240209 420.9116912 -36 431 C-36.78955078 431.17789062 -37.57910156 431.35578125 -38.39257812 431.5390625 C-58.14121209 435.92378123 -79.32329121 435.56323582 -99 431 C-99.74588379 430.83371094 -100.49176758 430.66742188 -101.26025391 430.49609375 C-140.20665877 421.65022261 -177.53523949 402.51920093 -206.6640625 375.18359375 C-208.70509858 373.27566872 -210.79357411 371.47702181 -212.9375 369.6875 C-253.25725559 334.36673849 -278.75102389 278.78585043 -282.46875 225.81640625 C-285.74092374 169.61176217 -267.15276602 112.8601799 -229.75390625 70.453125 C-228.22353364 68.74984351 -226.68587865 67.05307393 -225.140625 65.36328125 C-223.27147093 63.29970787 -221.47676638 61.19485387 -219.6875 59.0625 C-206.64883211 44.21208099 -189.9148586 32.07432305 -173 22 C-171.96190186 21.37931641 -171.96190186 21.37931641 -170.90283203 20.74609375 C-161.4790067 15.1696195 -152.05380857 10.34797373 -141.63867188 6.88378906 C-139.6483514 6.21715693 -137.663574 5.53394208 -135.68164062 4.84277344 C-90.55765946 -10.87791625 -46.31923388 -11.92106019 0 0 Z " fill="#63A93E" transform="translate(735,8)"/>
<path d="M0 0 C23.00036401 -0.65533437 45.18693963 0.13028617 67.8996582 4.05993652 C68.89707031 4.22590332 69.89448242 4.39187012 70.92211914 4.56286621 C104.66549269 10.36630945 138.69221329 23.66435186 166.8996582 43.05993652 C167.49488281 43.46276855 168.09010742 43.86560059 168.70336914 44.28063965 C177.58768277 50.3183369 185.83723353 56.97083746 193.8996582 64.05993652 C194.7968457 64.84497559 195.6940332 65.63001465 196.6184082 66.43884277 C205.90978667 74.6835073 214.18243226 83.32455445 221.8996582 93.05993652 C222.77371943 94.13231695 223.6487511 95.203907 224.5246582 96.27478027 C257.00405433 136.32320697 276.24662309 186.39899983 283.8996582 237.05993652 C284.1473999 238.65950195 284.1473999 238.65950195 284.40014648 240.29138184 C287.06721753 258.4451167 287.2088819 276.62121835 287.2746582 294.93493652 C287.28260406 296.09722778 287.29054993 297.25951904 287.29873657 298.45703125 C287.45175588 327.60939442 286.88052479 366.19802672 265.8996582 389.05993652 C242.64588236 409.34846579 204.52820065 406.63372366 175.91789675 406.46551228 C170.87581869 406.44020902 165.83372721 406.43813415 160.79159546 406.43341064 C151.27950939 406.4210647 141.76761106 406.38835871 132.25560701 406.34801269 C121.41131529 406.3030313 110.56701377 406.28124218 99.72265172 406.26123095 C77.44821647 406.21961692 55.17394925 406.14943108 32.8996582 406.05993652 C33.48965425 403.03213713 34.131019 400.14178995 35.1340332 397.22399902 C47.2004324 361.18547253 49.4878278 325.6811041 45.35668945 288.07946777 C44.35981214 278.88016509 43.71167719 269.74747024 43.3996582 260.49743652 C41.65455559 212.16758621 25.79576423 165.38005178 4.8996582 122.05993652 C4.45509277 121.12842773 4.01052734 120.19691895 3.55249023 119.23718262 C-12.68754996 85.32712426 -33.77577286 52.74306098 -57.10424805 23.23962402 C-57.81629395 22.33518555 -57.81629395 22.33518555 -58.54272461 21.41247559 C-59.80637732 19.81917434 -61.08736217 18.23966026 -62.36987305 16.66149902 C-64.1003418 14.05993652 -64.1003418 14.05993652 -64.1003418 10.05993652 C-42.73386734 5.0552394 -22.0080875 0.62803504 0 0 Z " fill="#63A93E" transform="translate(1064.100341796875,572.9400634765625)"/>
<path d="M0 0 C5.0605843 -0.20517664 10.11293501 -0.27924208 15.17736816 -0.26489258 C15.92857941 -0.26434875 16.67979065 -0.26380493 17.45376587 -0.26324463 C42.9627824 -0.17990253 67.67776661 4.5790649 92.48986816 10.11010742 C91.95078542 13.55225603 91.24067889 15.90448 89.18908691 18.71948242 C88.71261719 19.38286621 88.23614746 20.04625 87.74523926 20.72973633 C86.96914307 21.78427002 86.96914307 21.78427002 86.17736816 22.86010742 C85.07955634 24.38343282 83.98190458 25.90687358 82.88439941 27.43041992 C82.3205957 28.20675781 81.75679199 28.9830957 81.17590332 29.78295898 C73.01700477 41.04427103 65.06843093 52.44990673 57.48986816 64.11010742 C56.79425781 65.18035156 56.79425781 65.18035156 56.08459473 66.2722168 C48.09190813 78.62697751 40.60948463 91.23324077 33.48986816 104.11010742 C33.02193848 104.9526709 32.55400879 105.79523438 32.07189941 106.66333008 C13.64542924 140.07743689 1.54145199 176.17444317 -7.96298218 213.00195312 C-8.3237935 214.39215035 -8.69030929 215.78088125 -9.06289673 217.16796875 C-12.30198366 229.2678836 -13.74438303 241.26040802 -14.69763184 253.73510742 C-14.7790744 254.76904633 -14.86051697 255.80298523 -14.94442749 256.86825562 C-16.48418502 276.91529107 -17.13614407 296.98033851 -17.52417374 317.07775116 C-17.57209036 319.39640584 -17.62947714 321.71464788 -17.68942261 324.03302002 C-18.12258383 341.38544148 -17.72410998 357.37978528 -12.51013184 374.11010742 C-12.11704564 375.49580969 -11.72937866 376.88306347 -11.34777832 378.27197266 C-10.3403105 381.91852861 -9.276661 385.54649613 -8.19763184 389.17260742 C-7.48829292 391.55787097 -6.7836371 393.94453373 -6.08435059 396.33276367 C-5.78101807 397.35120361 -5.47768555 398.36964355 -5.16516113 399.41894531 C-4.51013184 402.11010742 -4.51013184 402.11010742 -4.51013184 406.11010742 C-27.54738629 406.22747944 -50.58459067 406.31535727 -73.62208462 406.36916828 C-84.32144164 406.39482997 -95.02061171 406.4297471 -105.71984863 406.48730469 C-115.0572297 406.53751162 -124.39447521 406.56948559 -133.73198754 406.5805499 C-138.66536744 406.58700627 -143.59835995 406.60192168 -148.5316143 406.63875771 C-180.11539598 406.86527755 -215.11043795 406.8594204 -240.58825684 385.24682617 C-245.61106638 379.66252369 -248.44830699 373.39068386 -250.69763184 366.29760742 C-250.9444873 365.56735352 -251.19134277 364.83709961 -251.44567871 364.0847168 C-254.4801969 354.78695308 -255.80771826 345.56702021 -255.83239746 335.80639648 C-255.84232727 334.84021393 -255.85225708 333.87403137 -255.86248779 332.87857056 C-255.89146311 329.71092752 -255.90530093 326.54348576 -255.91638184 323.37573242 C-255.92203659 322.27712639 -255.92769135 321.17852036 -255.93351746 320.04662323 C-255.96341781 314.21425947 -255.98192086 308.38199328 -255.99060059 302.54956055 C-255.99931599 297.79208235 -256.02689682 293.03534061 -256.07263184 288.27807617 C-256.32140071 261.8891308 -256.30708362 236.74721727 -249.51013184 211.11010742 C-248.93857706 208.84143751 -248.36785092 206.57255867 -247.79797363 204.3034668 C-237.46647412 163.53397843 -219.05358989 125.03200797 -191.51013184 93.11010742 C-190.86431152 92.35342773 -190.21849121 91.59674805 -189.55310059 90.81713867 C-178.02805815 77.66140189 -165.62885416 65.44710261 -151.51013184 55.11010742 C-150.41733069 54.28765988 -149.32488217 53.4647436 -148.23278809 52.64135742 C-134.74893249 42.61032136 -120.18871893 34.28640197 -105.19763184 26.73510742 C-104.25677734 26.25960449 -103.31592285 25.78410156 -102.34655762 25.29418945 C-87.61359013 18.01811545 -72.85172568 13.26141599 -56.96228027 9.21313477 C-53.66987432 8.36901483 -50.38727597 7.49243971 -47.10388184 6.61401367 C-31.39633671 2.51723674 -16.1872417 0.71005651 0 0 Z " fill="#63A93E" transform="translate(255.5101318359375,572.889892578125)"/>
<path d="M0 0 C1.1437207 0.27287842 1.1437207 0.27287842 2.31054688 0.55126953 C29.65601541 7.32708426 53.65456026 21.78106951 74 41 C74.74765625 41.69480469 75.4953125 42.38960937 76.265625 43.10546875 C101.50513037 67.3300989 117.23843668 103.29249456 118.3359375 138.20703125 C118.85448304 181.11457281 107.69908322 222.20434128 77.5769043 253.89038086 C52.18351287 279.72345628 18.80860539 292.37402089 -16 300 C-16.79857422 300.17934082 -17.59714844 300.35868164 -18.41992188 300.54345703 C-52.15783244 307.90990888 -84.80991145 300.66975105 -114 283 C-118.58907144 279.97019869 -122.81587716 276.56830284 -127 273 C-127.84433594 272.28328125 -128.68867188 271.5665625 -129.55859375 270.828125 C-132.09423474 268.60487498 -134.55353313 266.32100703 -137 264 C-137.49999512 263.53255371 -137.99999023 263.06510742 -138.51513672 262.58349609 C-168.19775961 234.68778696 -187.18160136 194.12306152 -189.1262207 153.35375977 C-190.08788201 119.67119103 -181.66344497 86.22258829 -161 59 C-160.06800781 57.75669922 -160.06800781 57.75669922 -159.1171875 56.48828125 C-141.30159669 33.51554573 -119.08817767 15.91763038 -92 5 C-91.34104736 4.73405029 -90.68209473 4.46810059 -90.00317383 4.1940918 C-83.16529345 1.67395939 -76.13569632 0.85859621 -68.9375 -0.0625 C-59.81061706 -1.1316663 -59.81061706 -1.1316663 -50.85546875 -3.09765625 C-34.47669663 -6.9309859 -16.11085891 -3.85659231 0 0 Z " fill="#63A93E" transform="translate(238,156)"/>
<path d="M0 0 C14.88370568 7.70243391 27.45849949 16.69555259 39.46875 28.33691406 C40.6319561 29.45679393 41.81997767 30.55081206 43.01318359 31.63867188 C58.19902526 45.85387212 69.10188228 65.14738836 75.84521484 84.66210938 C76.07192871 85.31759766 76.29864258 85.97308594 76.53222656 86.6484375 C90.00364219 126.61075252 85.47261284 170.90399363 66.97021484 208.52929688 C60.85737105 220.58136702 53.12209678 230.83860981 43.84521484 240.66210938 C43.12076172 241.46261719 42.39630859 242.263125 41.64990234 243.08789062 C19.59634347 266.52446929 -11.80199282 277.68714369 -42.15478516 285.66210938 C-43.00991699 285.88946777 -43.86504883 286.11682617 -44.74609375 286.35107422 C-64.07031061 291.35820549 -81.88348468 290.50080809 -101.15478516 285.66210938 C-101.89325684 285.48019043 -102.63172852 285.29827148 -103.39257812 285.11083984 C-114.87092995 282.21341695 -125.51968125 277.82447513 -136.15478516 272.66210938 C-136.8228418 272.33839355 -137.49089844 272.01467773 -138.17919922 271.68115234 C-175.29938555 253.41816922 -203.94411695 221.3975165 -218.15478516 182.66210938 C-219.81560887 177.73532661 -221.07903021 172.74803972 -222.15478516 167.66210938 C-222.36619141 166.69917969 -222.57759766 165.73625 -222.79541016 164.74414062 C-230.24963925 126.14188282 -220.08691627 84.47464584 -198.71337891 51.84960938 C-181.89957217 27.1972533 -159.78488665 8.94628106 -133.15478516 -4.33789062 C-131.98947266 -4.92441406 -130.82416016 -5.5109375 -129.62353516 -6.11523438 C-116.35793182 -11.88224998 -101.50103905 -12.9926496 -87.27075195 -14.8605957 C-57.15716944 -19.47330853 -27.31655887 -13.57662548 0 0 Z " fill="#63A93E" transform="translate(1216.15478515625,168.337890625)"/>
<path d="M0 0 C14.19 0 28.38 0 43 0 C43 195.03 43 390.06 43 591 C28.81 591 14.62 591 0 591 C-0.33 559.98 -0.66 528.96 -1 497 C-3.64 501.62 -6.28 506.24 -9 511 C-11.16021117 514.22017492 -13.30831711 517.34118721 -15.625 520.4375 C-16.21837158 521.23534912 -16.81174316 522.03319824 -17.4230957 522.85522461 C-49.33774732 565.01450041 -97.07722504 590.81930341 -149.02832031 598.47875977 C-205.45589291 605.84776124 -264.37134521 593.44970728 -310.4375 559.375 C-312.30078457 557.92833461 -314.15537883 556.47038868 -316 555 C-316.88558594 554.30648437 -317.77117188 553.61296875 -318.68359375 552.8984375 C-329.16366211 544.53263547 -339.59628758 535.49530307 -348 525 C-349.24136719 523.48019531 -349.24136719 523.48019531 -350.5078125 521.9296875 C-381.54246056 483.52334995 -398.77913397 437.52469586 -400 388 C-400.03996094 386.72511719 -400.07992187 385.45023438 -400.12109375 384.13671875 C-400.72579559 355.99587685 -396.71568394 327.45884725 -387 301 C-386.73993164 300.29117676 -386.47986328 299.58235352 -386.21191406 298.85205078 C-378.18436205 277.42723172 -366.76907306 257.4806854 -352 240 C-351.54866699 239.45988281 -351.09733398 238.91976562 -350.63232422 238.36328125 C-342.09504097 228.15572121 -333.24100833 218.53973333 -323 210 C-322.48727539 209.56816406 -321.97455078 209.13632812 -321.44628906 208.69140625 C-312.71121213 201.37001298 -303.71751728 194.93527746 -293.90820312 189.13183594 C-292.11034506 188.06545032 -290.32803508 186.9767776 -288.546875 185.8828125 C-239.26174179 156.42634916 -176.83568776 152.59512894 -122 166 C-80.39131013 176.90190456 -43.1442482 202.56367382 -17.0625 236.5625 C-16.60875 237.14410889 -16.155 237.72571777 -15.6875 238.32495117 C-10.03591635 245.84694926 -5.84808828 253.75824992 -1 262 C-0.67 175.54 -0.34 89.08 0 0 Z M-222 205 C-222.87060059 205.21430664 -223.74120117 205.42861328 -224.63818359 205.64941406 C-262.9311853 215.44181763 -296.85521894 238.85732477 -321 270 C-321.78117187 270.99128906 -322.56234375 271.98257813 -323.3671875 273.00390625 C-352.5907754 311.21032302 -360.96232949 360.91434308 -355.15771484 407.79321289 C-348.74347216 453.44139121 -323.69155867 495.21050114 -287 523 C-247.47664829 552.6849694 -199.43151799 563.5421901 -150.63818359 557.15820312 C-114.83030899 551.83551255 -82.41177945 535.52706606 -56.47851562 510.42724609 C-54.94155591 508.94358254 -53.38498235 507.48227723 -51.828125 506.01953125 C-32.73668796 487.81060399 -19.19682468 465.63163728 -10 441 C-9.75024414 440.33468262 -9.50048828 439.66936523 -9.24316406 438.98388672 C6.41900017 396.15731696 3.0967142 344.84033376 -15.94921875 303.69921875 C-24.67736388 285.50822163 -36.05322481 269.53511201 -50 255 C-50.76618652 254.19296631 -50.76618652 254.19296631 -51.54785156 253.36962891 C-80.96553755 222.51096569 -122.70959496 201.98903484 -165.69194031 200.71066284 C-169.75330428 200.63056077 -173.81294292 200.61526817 -177.875 200.625 C-179.15958603 200.62581573 -179.15958603 200.62581573 -180.47012329 200.62664795 C-194.62296517 200.66784598 -208.20940273 201.59062186 -222 205 Z " fill="#FFFFFF" transform="translate(3568,232)"/>
<path d="M0 0 C14.19 0 28.38 0 43 0 C43 195.03 43 390.06 43 591 C28.81 591 14.62 591 0 591 C-0.495 544.965 -0.495 544.965 -1 498 C-3.97 502.95 -6.94 507.9 -10 513 C-11.92106596 515.799749 -13.81269951 518.50639965 -15.875 521.1875 C-16.37765381 521.84838623 -16.88030762 522.50927246 -17.39819336 523.19018555 C-22.24916838 529.47859905 -27.48602695 535.28595536 -33 541 C-34.25490234 542.34964844 -34.25490234 542.34964844 -35.53515625 543.7265625 C-70.61384858 580.44543502 -122.60714548 598.78055246 -172.578125 600.2890625 C-234.59364568 601.35034866 -290.10334639 580.87813921 -335 538 C-336.38832031 536.69095703 -336.38832031 536.69095703 -337.8046875 535.35546875 C-359.37524062 514.48763903 -375.31295538 487.88086962 -386 460 C-386.24588867 459.36030273 -386.49177734 458.72060547 -386.74511719 458.06152344 C-406.63701553 405.19617876 -404.39322667 339.39033462 -381.33984375 288 C-375.51100578 275.33245293 -369.13145373 263.33741408 -361 252 C-360.58008789 251.41331543 -360.16017578 250.82663086 -359.72753906 250.22216797 C-353.73908607 241.95941179 -347.060903 234.35797758 -340 227 C-339.41476563 226.3822168 -338.82953125 225.76443359 -338.2265625 225.12792969 C-328.56125392 214.96632155 -318.42470344 206.12789973 -307 198 C-306.07501709 197.33194336 -306.07501709 197.33194336 -305.13134766 196.65039062 C-258.63370986 163.28817778 -199.19424947 152.77430368 -143.18505859 161.45214844 C-101.51723065 168.61929591 -65.51199425 186.92642833 -35 216 C-34.22140625 216.72574219 -33.4428125 217.45148438 -32.640625 218.19921875 C-19.81275143 230.50396982 -9.77782729 245.63880223 -1 261 C-0.67 174.87 -0.34 88.74 0 0 Z M-222 205 C-222.75603516 205.17660156 -223.51207031 205.35320312 -224.29101562 205.53515625 C-254.27330809 212.74372167 -279.94693973 228.88827048 -302 250 C-302.5583252 250.52577637 -303.11665039 251.05155273 -303.69189453 251.59326172 C-317.5319402 264.66849325 -328.31885782 279.06059094 -337 296 C-337.5256958 297.01465332 -337.5256958 297.01465332 -338.06201172 298.04980469 C-347.19054408 315.86917122 -352.08308211 334.24055284 -355 354 C-355.1045752 354.6916626 -355.20915039 355.3833252 -355.31689453 356.09594727 C-356.30370628 363.58706651 -356.24371923 371.14439905 -356.25 378.6875 C-356.25067474 379.41721008 -356.25134949 380.14692017 -356.25204468 380.89874268 C-356.22379134 400.21610462 -353.74636083 418.52003669 -348 437 C-347.79568359 437.6609668 -347.59136719 438.32193359 -347.38085938 439.00292969 C-340.07088709 461.89590637 -327.25511438 482.39228744 -310.94921875 499.8984375 C-309.20472294 501.77927667 -307.56532432 503.70618031 -305.9375 505.6875 C-302.62823271 509.55129316 -298.91104259 512.75819389 -295 516 C-294.50419434 516.42410156 -294.00838867 516.84820313 -293.49755859 517.28515625 C-268.28204623 538.81918882 -238.67950877 551.90184992 -206 557 C-204.94425781 557.1753125 -203.88851562 557.350625 -202.80078125 557.53125 C-160.79175567 562.71221924 -114.93345102 555.03193146 -80 530 C-79.06671875 529.33742188 -78.1334375 528.67484375 -77.171875 527.9921875 C-36.92500094 498.59721927 -9.12643439 457.94221478 -1.125 408.3125 C1.88323699 386.88456434 1.72654433 363.10326504 -3 342 C-3.28206299 340.67331299 -3.28206299 340.67331299 -3.56982422 339.31982422 C-13.61589755 293.10149321 -42.57021909 253.41694399 -82.04492188 227.66601562 C-107.16925421 211.76423859 -136.72188455 201.06129722 -166.6875 200.76171875 C-167.49944321 200.75197021 -168.31138641 200.74222168 -169.14793396 200.73217773 C-187.10162848 200.56101187 -204.44922888 200.72898237 -222 205 Z " fill="#FFFFFF" transform="translate(3024,232)"/>
<path d="M0 0 C1.66945814 1.49737553 3.32869734 3.00623745 4.9765625 4.52734375 C7.29172459 6.65972989 9.65854447 8.71851735 12.0390625 10.77734375 C16.19709299 14.47740935 19.7921152 18.44500256 23.3515625 22.71484375 C24.08890625 23.56433594 24.82625 24.41382813 25.5859375 25.2890625 C48.07759692 51.54127007 64.71253066 82.19232731 73.3515625 115.71484375 C73.54443848 116.45476562 73.73731445 117.1946875 73.93603516 117.95703125 C75.26761338 123.17653928 76.36260341 128.42054992 77.3515625 133.71484375 C77.50254395 134.48344727 77.65352539 135.25205078 77.80908203 136.04394531 C81.8091966 157.23117567 80.3515625 177.98473912 80.3515625 199.71484375 C-45.7084375 199.71484375 -171.7684375 199.71484375 -301.6484375 199.71484375 C-294.81103665 235.26932815 -286.13921423 268.24486698 -261.6484375 295.71484375 C-260.52115234 297.00455078 -260.52115234 297.00455078 -259.37109375 298.3203125 C-257.16188685 300.81652747 -254.9180263 303.27350229 -252.6484375 305.71484375 C-251.71451172 306.72998047 -251.71451172 306.72998047 -250.76171875 307.765625 C-219.2392548 340.74195521 -172.02904401 354.58950349 -127.6484375 355.71484375 C-84.95506838 356.2144005 -42.46603584 344.89430166 -9.6484375 316.71484375 C-9.13087891 316.28091309 -8.61332031 315.84698242 -8.08007812 315.39990234 C3.87070217 305.33110488 13.42017992 293.14792482 21.3515625 279.71484375 C25.68964258 281.01695056 29.29739245 282.69474202 33.16015625 285.05078125 C34.23716797 285.70304687 35.31417969 286.3553125 36.42382812 287.02734375 C37.53435547 287.70796875 38.64488281 288.38859375 39.7890625 289.08984375 C41.99573362 290.43158204 44.20275544 291.77274376 46.41015625 293.11328125 C47.43866699 293.73944336 48.46717773 294.36560547 49.52685547 295.01074219 C52.77223808 296.96863075 56.04637097 298.86013196 59.3515625 300.71484375 C58.85372073 305.46212058 56.62645536 308.61149977 53.8515625 312.33984375 C53.39797363 312.95811035 52.94438477 313.57637695 52.47705078 314.21337891 C51.11413848 316.05675942 49.73588033 317.88750329 48.3515625 319.71484375 C47.65804687 320.6378125 46.96453125 321.56078125 46.25 322.51171875 C12.23514595 365.85110807 -40.18865 389.67810845 -93.9609375 396.52734375 C-139.67286113 401.72654072 -188.14710545 396.12720959 -229.6484375 375.71484375 C-230.35661621 375.37227539 -231.06479492 375.02970703 -231.79443359 374.67675781 C-248.37747691 366.58323701 -262.86150803 355.90461894 -276.6484375 343.71484375 C-277.56496094 342.92078125 -278.48148438 342.12671875 -279.42578125 341.30859375 C-284.61598589 336.75057945 -289.22210819 332.00640204 -293.6484375 326.71484375 C-294.48117188 325.76996094 -295.31390625 324.82507813 -296.171875 323.8515625 C-331.52223251 283.53820829 -346.92521635 230.66559423 -346.8359375 177.71484375 C-346.83500092 176.99151855 -346.83406433 176.26819336 -346.83309937 175.52294922 C-346.65830568 112.93475542 -324.32969998 57.9141217 -280.04296875 13.74072266 C-212.29383592 -52.37574103 -95.79758115 -62.99938901 0 0 Z M-167.6484375 1.71484375 C-168.41494629 1.88113281 -169.18145508 2.04742187 -169.97119141 2.21875 C-194.24704215 7.58797359 -217.36344385 17.92426993 -236.6484375 33.71484375 C-237.18307617 34.14941895 -237.71771484 34.58399414 -238.26855469 35.03173828 C-254.6743234 48.41789449 -267.83487662 63.50358513 -278.6484375 81.71484375 C-278.99503418 82.29814453 -279.34163086 82.88144531 -279.69873047 83.48242188 C-292.27323304 105.00496173 -301.6484375 132.62040266 -301.6484375 157.71484375 C-190.1084375 157.71484375 -78.5684375 157.71484375 36.3515625 157.71484375 C29.590216 108.1316361 13.5824493 64.11951039 -27.24072266 32.72094727 C-29.03334716 31.37148991 -30.83750706 30.03961507 -32.6484375 28.71484375 C-33.51178711 28.07699951 -33.51178711 28.07699951 -34.39257812 27.42626953 C-49.97546626 16.05390925 -67.99163511 7.61351392 -86.6484375 2.71484375 C-87.44217773 2.50601563 -88.23591797 2.2971875 -89.05371094 2.08203125 C-113.54521843 -3.98088796 -143.05102819 -3.92773197 -167.6484375 1.71484375 Z " fill="#FFFFFF" transform="translate(4229.6484375,434.28515625)"/>
<path d="M0 0 C14.19 0 28.38 0 43 0 C43.33 80.52 43.66 161.04 44 244 C47.3 238.39 50.6 232.78 54 227 C57.56916564 222.20008758 61.12872003 217.53935698 65 213 C65.43924805 212.48099121 65.87849609 211.96198242 66.33105469 211.42724609 C93.53084553 179.62022604 132.24507116 162.99877862 173.51171875 159.34765625 C190.94276178 158.07870488 208.71517863 158.30052306 226 161 C226.79776855 161.12358887 227.59553711 161.24717773 228.41748047 161.37451172 C256.54363717 165.93416573 283.98033635 177.23717144 304.87109375 196.9921875 C306.70957704 198.72609651 308.58870676 200.30136074 310.5625 201.875 C315.37922688 205.98106226 319.11151415 211.03905528 323 216 C323.71027344 216.84820312 324.42054688 217.69640625 325.15234375 218.5703125 C341.75343879 239.16407597 350.79002549 265.1511344 355 291 C355.16830259 291.99197388 355.33660519 292.98394775 355.51000786 294.00598145 C357.42319026 306.9308498 357.27338204 319.82565614 357.23213124 332.86725903 C357.22339276 336.34076567 357.22642416 339.8142662 357.22793579 343.28778076 C357.22897815 349.2876465 357.22277 355.28746831 357.21146011 361.287323 C357.19511922 369.96181098 357.18998838 378.63627799 357.18748413 387.31077969 C357.18312041 401.38883908 357.16984745 415.46687514 357.15087891 429.54492188 C357.1324857 443.21028528 357.11834609 456.87564232 357.10986328 470.54101562 C357.10933783 471.38511879 357.10881239 472.22922196 357.10827102 473.09890401 C357.10566071 477.33405006 357.10313335 481.56919615 357.10064721 485.80434227 C357.07995597 520.86957882 357.04421148 555.93478568 357 591 C342.48 591 327.96 591 313 591 C312.99120064 585.76058029 312.99120064 585.76058029 312.98222351 580.41531372 C312.92695375 548.32475879 312.85694057 516.23426359 312.77101372 484.14377571 C312.75974664 479.93097446 312.74860801 475.71817289 312.73754883 471.50537109 C312.7342433 470.24742343 312.7342433 470.24742343 312.730871 468.96406268 C312.69557613 455.41592646 312.67066802 441.8677903 312.64965298 428.31962527 C312.62782851 414.40000904 312.59471551 400.48045204 312.55129844 386.56088626 C312.52489574 377.98377316 312.50711677 369.40673376 312.50065396 360.82958208 C312.49536501 354.93405524 312.47903183 349.03862083 312.45433434 343.14314367 C312.44043809 339.75053229 312.43275084 336.3582249 312.43499184 332.96556473 C312.44306738 315.08737425 311.65677454 298.06344351 306.3125 280.875 C306.05903809 280.04935547 305.80557617 279.22371094 305.54443359 278.37304688 C296.76532665 251.00877592 278.30808792 228.18230677 252.76757812 214.90234375 C236.3884873 206.54086313 218.18466084 201.90692963 199.7578125 201.796875 C198.60694656 201.78832489 198.60694656 201.78832489 197.43283081 201.77960205 C195.81428375 201.77021275 194.19571809 201.76364244 192.57714844 201.75976562 C190.16565064 201.75016189 187.75504489 201.71912354 185.34375 201.6875 C148.10727708 201.43278502 112.99776671 215.46803767 86.41845703 241.55859375 C51.45466011 277.08807 43.91760917 326.67738025 43.79467773 374.39355469 C43.78508654 376.75982835 43.77507575 379.12610034 43.76467896 381.49237061 C43.73775829 387.8881395 43.7166796 394.28391567 43.69667697 400.67970943 C43.67696338 406.69504172 43.65284272 412.71035503 43.62875474 418.72567096 C43.58121934 430.63188031 43.53791759 442.53810108 43.49731445 454.44433594 C43.45788768 466.00293871 43.41644452 477.56153138 43.37231445 489.12011719 C43.36959018 489.83384344 43.36686591 490.5475697 43.36405908 491.28292403 C43.35037842 494.86385364 43.33665838 498.4447831 43.32291877 502.02571249 C43.20917503 531.68378713 43.10258075 561.34188461 43 591 C28.81 591 14.62 591 0 591 C0 395.97 0 200.94 0 0 Z " fill="#FFFFFF" transform="translate(1702,232)"/>
<path d="M0 0 C14.52 0 29.04 0 44 0 C44.00808685 3.37797318 44.01617371 6.75594635 44.02450562 10.23628235 C44.09972797 41.27939293 44.18465865 72.32246337 44.28005161 103.36551853 C44.29256909 107.4418396 44.30500208 111.51816093 44.31738281 115.59448242 C44.31984881 116.40593636 44.3223148 117.21739029 44.32485552 118.05343374 C44.36447882 131.15793585 44.39727207 144.26244649 44.42749982 157.36697326 C44.45871605 170.83344818 44.49736812 184.29988727 44.54279006 197.76632184 C44.57054224 206.06242613 44.5926321 214.3585045 44.60726251 222.65464249 C44.61788045 228.35906683 44.63578124 234.0634407 44.65916704 239.76782683 C44.67241148 243.04910546 44.68159032 246.33030197 44.68421364 249.61160851 C44.70091651 267.34379915 44.82023554 285.18285891 49.125 302.5 C49.33527832 303.35964355 49.54555664 304.21928711 49.76220703 305.10498047 C53.25730124 318.60370123 58.71864134 331.7256004 67 343 C67.59167969 343.81210937 68.18335937 344.62421875 68.79296875 345.4609375 C87.94204269 370.49292281 114.41232231 384.47728158 145.55712891 388.71386719 C185.94160891 393.44409011 226.87497045 385.34275029 259.38623047 360.27783203 C290.99354939 335.25019099 306.03006163 298.05871024 311.75 259.1875 C311.86569336 258.40133301 311.98138672 257.61516602 312.10058594 256.80517578 C314.20013749 241.20531632 314.16332506 225.50208775 314.20532227 209.79492188 C314.21492127 207.49702283 314.22493247 205.19912547 314.23532104 202.90122986 C314.26215728 196.71023695 314.2832809 190.51923659 314.30332303 184.32821846 C314.3253152 177.84066565 314.35263865 171.35313525 314.37937927 164.86560059 C314.42348843 153.9919532 314.4643529 143.11829813 314.50268555 132.24462891 C314.54214849 121.05288799 314.58359991 109.8611573 314.62768555 98.66943359 C314.63177196 97.631784 314.63177196 97.631784 314.63594092 96.57317179 C314.64962217 93.10221322 314.66334209 89.63125479 314.67708123 86.16029644 C314.79071438 57.4402185 314.8968215 28.72011758 315 0 C329.19 0 343.38 0 358 0 C358 139.59 358 279.18 358 423 C343.81 423 329.62 423 315 423 C314.67 397.92 314.34 372.84 314 347 C310.37 352.94 306.74 358.88 303 365 C294.38213223 376.52276702 285.33984499 388.01477399 274 397 C273.50467773 397.39654785 273.00935547 397.7930957 272.49902344 398.20166016 C234.896026 427.99922037 186.23587755 436.08471743 139.36303711 431.17773438 C96.73261155 425.96692331 59.22864186 406.95789139 32.5078125 372.86328125 C4.35488693 335.73890558 -0.17996902 291.29425615 -0.11352539 246.23657227 C-0.11324293 243.54473775 -0.11335851 240.85290596 -0.1139679 238.16107178 C-0.11448919 232.39256383 -0.11138391 226.62406729 -0.10573006 220.85556221 C-0.09756117 212.51554001 -0.09499434 204.17552326 -0.09374207 195.83549749 C-0.09155997 182.30040341 -0.08492282 168.7653154 -0.07543945 155.23022461 C-0.06624348 142.09155304 -0.05917336 128.95288313 -0.05493164 115.81420898 C-0.05453756 114.59694557 -0.05453756 114.59694557 -0.05413551 113.35509098 C-0.05283036 109.28349906 -0.05156668 105.21190712 -0.05032361 101.14031518 C-0.03997724 67.4268722 -0.02210441 33.71343727 0 0 Z " fill="#FFFFFF" transform="translate(2166,400)"/>
<path d="M0 0 C14.19 0 28.38 0 43 0 C43 203.28 43 406.56 43 616 C28.81 616 14.62 616 0 616 C0 412.72 0 209.44 0 0 Z " fill="#FFFFFF" transform="translate(3740,207)"/>
<path d="M0 0 C4.28754478 2.64481195 8.17885861 5.72309914 12 9 C12.72574219 9.61359375 13.45148438 10.2271875 14.19921875 10.859375 C27.19266986 22.80620235 35.92821755 41.46477016 37.21948242 58.9765625 C38.10475532 82.7323132 34.55941266 104.8325452 18 123 C16.90945313 124.22783203 16.90945313 124.22783203 15.796875 125.48046875 C1.72722974 140.48052603 -18.54449326 149.07055094 -39.0078125 150.16015625 C-60.98545222 150.72557651 -80.60467656 143.3948926 -96.59375 128.3671875 C-97.3878125 127.58601562 -98.181875 126.80484375 -99 126 C-99.7734375 125.23945312 -100.546875 124.47890625 -101.34375 123.6953125 C-116.1245938 108.25641744 -123.42362161 87.42187951 -123.30053711 66.18603516 C-122.75213546 45.30742545 -114.79248577 26.825663 -99.77734375 12.375 C-90.69641765 4.60959484 -79.75871333 -0.28471527 -68.93066406 -5.10693359 C-67.26362987 -5.87805285 -65.63824967 -6.73806153 -64.0234375 -7.61328125 C-44.8763949 -17.40751774 -17.83244261 -9.87994418 0 0 Z " fill="#63A93E" transform="translate(4491,685)"/>
</svg>
